<svg xmlns="http://www.w3.org/2000/svg" width="1600" height="1100" viewBox="0 0 1600 1100">
    <defs>
      <linearGradient id="bg" x1="0" y1="0" x2="1" y2="1"><stop stop-color="#f4edef"/><stop offset="1" stop-color="#bca3a8"/></linearGradient>
      <filter id="shadow"><feDropShadow dx="0" dy="24" stdDeviation="28" flood-opacity=".22"/></filter>
      <linearGradient id="cover" x1="0" y1="0" x2="1" y2="1"><stop stop-color="#251c23"/><stop offset="1" stop-color="#bca3a8"/></linearGradient>
    </defs>
    <rect width="1600" height="1100" fill="url(#bg)"/>
    <circle cx="1340" cy="170" r="210" fill="#fff" opacity=".18"/>
    <circle cx="180" cy="930" r="280" fill="#fff" opacity=".12"/>
    <g filter="url(#shadow)" transform="translate(120 120) rotate(-5 650 430)">
      <rect x="180" y="90" rx="24" width="820" height="720" fill="url(#cover)"/>
      <rect x="240" y="160" rx="18" width="700" height="430" fill="#f9f7f2" opacity=".96"/>
      <circle cx="590" cy="345" r="126" fill="#bca3a8"/>
      <path d="M465 522c30-98 90-148 125-148s95 50 125 148" fill="#251c23" opacity=".75"/>
      <circle cx="590" cy="313" r="58" fill="#f4d7c2"/>
      <path d="M535 300c12-78 118-88 126-6-36-28-79-32-126 6Z" fill="#251c23"/>
      <rect x="320" y="650" width="540" height="18" rx="9" fill="#fff" opacity=".7"/>
      <rect x="400" y="690" width="380" height="12" rx="6" fill="#fff" opacity=".46"/>
      <text x="590" y="755" fill="#fff" text-anchor="middle" font-family="Arial" font-size="38" letter-spacing="8">CLASS OF 2026</text>
    </g>
    <g transform="translate(1090 460)">
      <rect x="0" y="0" width="320" height="410" rx="24" fill="#fff" opacity=".86" filter="url(#shadow)"/>
      <circle cx="160" cy="135" r="70" fill="#bca3a8"/>
      <circle cx="160" cy="118" r="34" fill="#f4d7c2"/>
      <path d="M115 116c8-46 81-48 90-4-28-16-56-16-90 4Z" fill="#251c23"/>
      <path d="M86 250c24-80 60-112 74-112s50 32 74 112" fill="#251c23" opacity=".7"/>
      <rect x="58" y="300" width="204" height="11" rx="6" fill="#251c23" opacity=".5"/>
      <rect x="90" y="330" width="140" height="9" rx="5" fill="#bca3a8" opacity=".55"/>
    </g>
    <text x="90" y="1010" fill="#251c23" font-family="Arial" font-size="32" opacity=".72">DEMO PORTFOLIO · SCHOOL PHOTOBOOK</text>
    </svg>